<?xml version="1.0" encoding="iso-8859-1"?>
<!-- Generator: Adobe Illustrator 18.0.0, SVG Export Plug-In . SVG Version: 6.00 Build 0)  -->
<!DOCTYPE svg PUBLIC "-//W3C//DTD SVG 1.1//EN" "http://www.w3.org/Graphics/SVG/1.1/DTD/svg11.dtd">
<svg version="1.1" xmlns="http://www.w3.org/2000/svg" xmlns:xlink="http://www.w3.org/1999/xlink" x="0px" y="0px"
	 viewBox="0 0 48 48" style="enable-background:new 0 0 48 48;" xml:space="preserve">
<g id="Layer_427">
	<g>
		<path style="fill:#3C5B9B;" d="M48,1c0-0.551-0.451-1-1-1c0,0-22.73,0-22.997,0C10.746,0,0,10.744,0,24
			c0,13.254,10.746,24,24.003,24C37.254,48,48,37.254,48,24C48,23.73,48,1,48,1z"/>
		<g>
			<path style="fill:#FFFFFF;" d="M20,39h6c0,0,0-8.282,0-15h4.453L31,18h-4.768v-2.399c0-1.169,0.779-1.441,1.326-1.441
				c0.547,0,3.366,0,3.366,0V9.019L26.289,9c-5.145,0-6.314,3.834-6.314,6.288V18H17v6h3C20,30.799,20,39,20,39z"/>
		</g>
	</g>
</g>
<g id="Layer_1">
</g>
</svg>
