<?xml version="1.0" encoding="iso-8859-1"?>
<!-- Generator: Adobe Illustrator 18.0.0, SVG Export Plug-In . SVG Version: 6.00 Build 0)  -->
<!DOCTYPE svg PUBLIC "-//W3C//DTD SVG 1.1//EN" "http://www.w3.org/Graphics/SVG/1.1/DTD/svg11.dtd">
<svg version="1.1" xmlns="http://www.w3.org/2000/svg" xmlns:xlink="http://www.w3.org/1999/xlink" x="0px" y="0px"
	 viewBox="0 0 48 48" style="enable-background:new 0 0 48 48;" xml:space="preserve">
<g id="Layer_408">
	<g>
		<path style="fill:#F63D27;" d="M48,1c0-0.549-0.451-1-1-1C47,0,24.268,0,24,0C10.745,0,0,10.746,0,24c0,13.256,10.745,24,24,24
			C37.254,48,48,37.256,48,24C48,23.733,48,1,48,1z"/>
		<g>
			<path style="fill:#FFFFFF;" d="M31.955,30h1.289C33.589,30,34,28.921,34,28.575V24h4.392C38.736,24,40,23.761,40,23.414v-1.29
				C40,21.779,38.736,22,38.392,22H34v-5.035C34,16.621,33.589,16,33.244,16h-1.289C31.609,16,32,16.621,32,16.965V22h-5.196
				C26.461,22,26,21.779,26,22.125v1.29C26,23.761,26.461,24,26.804,24H32v4.575C32,28.921,31.609,30,31.955,30z"/>
			<path style="fill:#FFFFFF;" d="M14.136,37.094c1.144,0.292,2.375,0.44,3.652,0.44c1.148,0,2.242-0.151,3.254-0.444
				c3.154-0.916,5.193-3.242,5.193-5.929c0-2.577-0.826-4.119-3.045-5.692c-0.951-0.675-1.817-1.663-1.832-1.969
				c0-0.554,0.049-0.818,1.289-1.787c1.603-1.256,2.486-2.449,2.486-4.196c0-1.583-0.482-3.517-1.307-3.517h0.639
				c0.133,0,0.262-0.502,0.367-0.578l1.779-1.522c0.221-0.159,0.314,0.175,0.229-0.083C26.758,11.559,26.517,12,26.246,12h-7.957
				c-0.871,0-1.756-0.58-2.623-0.281c-2.9,1.002-4.928,3.111-4.928,5.655c0,3.599,2.783,6.145,6.506,6.231
				c-0.072,0.286-0.109,0.476-0.109,0.752c0,0.554,0.141,1.034,0.43,1.541c-0.035,0.002-0.066-0.021-0.104-0.021
				c-3.547,0-6.75,1.732-7.965,4.329c-0.318,0.673-0.478,1.35-0.478,2.023c0,0.656,0.168,1.283,0.496,1.876
				C10.279,35.475,11.92,36.535,14.136,37.094z M14.845,17.23c-0.172-1.319,0.103-2.663,0.76-3.412c0.424-0.485,0.978-0.82,1.6-0.82
				l0.072-0.038c1.758,0.051,3.439,1.994,3.75,4.355c0.174,1.323-0.431,2.387-1.096,3.146C19.508,20.947,20,21.493,18,21.493V22
				h0.595C16.873,22,15.154,19.588,14.845,17.23z M18.226,28h0.072c0.59,0,1.164,0.019,1.707,0.186
				c0.186,0.127,0.365,0.213,0.539,0.331c1.254,0.857,2.082,1.404,2.314,2.312c0.053,0.227,0.08,0.447,0.08,0.668
				c0,2.334-1.738,3.514-5.166,3.514c-2.6,0-4.633-1.523-4.633-3.562C13.14,29.572,15.517,28,18.226,28z"/>
		</g>
	</g>
</g>
<g id="Layer_1">
</g>
</svg>
