<?xml version="1.0" encoding="iso-8859-1"?>
<!-- Generator: Adobe Illustrator 18.0.0, SVG Export Plug-In . SVG Version: 6.00 Build 0)  -->
<!DOCTYPE svg PUBLIC "-//W3C//DTD SVG 1.1//EN" "http://www.w3.org/Graphics/SVG/1.1/DTD/svg11.dtd">
<svg version="1.1" xmlns="http://www.w3.org/2000/svg" xmlns:xlink="http://www.w3.org/1999/xlink" x="0px" y="0px"
	 viewBox="0 0 48 48" style="enable-background:new 0 0 48 48;" xml:space="preserve">
<g id="Layer_428">
	<g>
		<path style="fill:#2DAAE1;" d="M48,1c0-0.551-0.451-1-1-1c0,0-22.732,0-23,0C10.745,0,0,10.744,0,24c0,13.254,10.745,24,24,24
			C37.255,48,48,37.254,48,24C48,23.73,48,1,48,1z"/>
		<g>
			<path style="fill:#FFFFFF;" d="M13.034,19.08c0.006,1.41,0.034,2.829,0.041,4.246c0.002,1.525,0.006,3.051,0.006,4.575
				c0,8.54,7.84,10.961,9.343,10.961c1.505,0,7.396,0.138,8.459,0.138C31.948,39,35,38.721,35,35.663
				c0-3.058-2.166-4.155-3.628-4.155h-5.849c-4.16,0-4.825-1.823-4.825-3.513c0-0.803,0.051-2.125,0.101-3.745h9.773
				c1.464,0,4.251-0.594,4.251-3.243c0-2.646-1.286-4.382-3.012-4.382H20.921C20.909,12.806,20.658,9,16.891,9
				c-1.558,0-2.823,0.634-3.356,2.208c-0.7,2.067-0.515,4.488-0.507,6.642C13.032,18.259,13.034,18.67,13.034,19.08z"/>
		</g>
	</g>
</g>
<g id="Layer_1">
</g>
</svg>
